<svg width="617" height="167" xmlns="http://www.w3.org/2000/svg">

 <g>
  <title>Layer 1</title>
  <g>
   <path fill="#00BCFF" d="m117.63181,11.62314c-59.3,0 -107.4,30.8 -107.4,68.7s48.1,71.7 107.4,71.7s107.4,-33.7 107.4,-71.7s-48.1,-68.7 -107.4,-68.7z" class="st0"/>
   <path fill="#FFFFFF" d="m82.63181,59.12314c-0.1,0.1 -1.1,1.2 -0.4,2.1c1.7,2.1 6.8,3.3 12,2.2c3.1,-0.7 7,-3.8 10.9,-6.9c4.2,-3.3 8.3,-6.6 12.4,-7.9c4.4,-1.4 7.2,-0.8 9.1,-0.2c2,0.6 4.4,2 8.3,4.8c7.2,5.4 36.1,30.7 41.2,35c4,-1.8 23.2,-9.6 47.5,-14.9c-2.1,-13 -9.9,-25.3 -21.9,-35c-16.7,7 -38.4,11.2 -58.4,1.5c-0.1,0 -10.9,-5.1 -21.5,-4.9c-15.8,0.4 -22.7,7.2 -29.9,14.5l-9.3,9.7l0,0z" class="st1"/>
   <path fill="#FFFFFF" d="m174.83181,90.92314c-0.3,-0.3 -34,-29.8 -41.7,-35.5c-4.4,-3.3 -6.9,-4.2 -9.5,-4.5c-1.3,-0.2 -3.2,0.1 -4.5,0.4c-3.6,1 -8.2,4.1 -12.3,7.3c-4.3,3.4 -8.3,6.6 -12,7.4c-4.8,1.1 -10.6,-0.2 -13.3,-2c-1.1,-0.7 -1.8,-1.6 -2.2,-2.4c-1,-2.3 0.8,-4.1 1.1,-4.4l9.3,-10.1c1.1,-1.1 2.2,-2.2 3.3,-3.2c-3,0.4 -5.8,1.2 -8.5,1.9c-3.4,0.9 -6.6,1.8 -9.9,1.8c-1.4,0 -8.7,-1.2 -10.1,-1.6c-8.4,-2.3 -18,-4.5 -29,-9.7c-13.2,9.8 -21.8,21.9 -24.4,35.5c1.9,0.5 6.9,1.6 8.2,1.9c29.9,6.7 39.2,13.5 40.9,14.9c1.8,-2 4.5,-3.3 7.4,-3.3c3.3,0 6.3,1.7 8.1,4.2c1.7,-1.4 4.1,-2.5 7.1,-2.5c1.4,0 2.8,0.3 4.3,0.7c3.4,1.2 5.1,3.4 6,5.4c1.1,-0.5 2.5,-0.9 4.2,-0.9c1.6,0 3.3,0.4 5,1.1c5.5,2.4 6.4,7.8 5.9,11.9c0.4,0 0.8,-0.1 1.2,-0.1c6.5,0 11.9,5.3 11.9,11.9c0,2 -0.5,3.9 -1.4,5.6c1.8,1 6.3,3.3 10.3,2.8c3.2,-0.4 4.4,-1.5 4.8,-2.1c0.3,-0.4 0.6,-0.9 0.3,-1.3l-8.4,-9.4c0,0 -1.4,-1.3 -0.9,-1.8c0.5,-0.5 1.3,0.2 1.9,0.7c4.3,3.6 9.5,9 9.5,9c0.1,0.1 0.4,0.7 2.4,1.1c1.7,0.3 4.6,0.1 6.7,-1.6c0.5,-0.4 1,-1 1.5,-1.5c0,0 -0.1,0.1 -0.1,0.1c2.2,-2.8 -0.2,-5.6 -0.2,-5.6l-9.9,-11.1c0,0 -1.4,-1.3 -0.9,-1.8c0.4,-0.5 1.3,0.2 2,0.7c3.1,2.6 7.5,7 11.8,11.2c0.8,0.6 4.5,2.9 9.5,-0.3c3,-2 3.6,-4.4 3.5,-6.2c-0.2,-2.4 -2.1,-4.1 -2.1,-4.1l-13.5,-13.5c0,0 -1.4,-1.2 -0.9,-1.8c0.4,-0.5 1.3,0.2 1.9,0.7c4.3,3.6 15.9,14.2 15.9,14.2c0.2,0.1 4.2,3 9.1,-0.2c1.8,-1.1 2.9,-2.8 3,-4.8c0.1,-3.1 -2.3,-5.1 -2.3,-5.1l0,0z" class="st1"/>
   <path fill="#FFFFFF" d="m109.53181,108.02314c-2.1,0 -4.4,1.2 -4.7,1c-0.2,-0.1 0.1,-0.9 0.3,-1.4c0.2,-0.5 2.9,-8.7 -3.7,-11.6c-5.1,-2.2 -8.3,0.3 -9.3,1.4c-0.3,0.3 -0.4,0.3 -0.4,-0.1c-0.1,-1.5 -0.8,-5.5 -5.2,-6.9c-6.3,-1.9 -10.4,2.5 -11.4,4.1c-0.5,-3.6 -3.5,-6.4 -7.2,-6.4c-4.1,0 -7.3,3.3 -7.4,7.3c0,4.1 3.3,7.3 7.3,7.3c2,0 3.8,-0.8 5.1,-2c0,0 0.1,0.1 0,0.2c-0.3,1.8 -0.9,8.4 6,11.1c2.8,1.1 5.1,0.3 7.1,-1.1c0.6,-0.4 0.7,-0.2 0.6,0.3c-0.3,1.7 0.1,5.3 5.2,7.4c3.9,1.6 6.2,0 7.7,-1.4c0.7,-0.6 0.8,-0.5 0.9,0.4c0.2,4.9 4.3,8.8 9.2,8.8c5.1,0 9.2,-4.1 9.2,-9.2c-0.1,-5 -4.2,-9.1 -9.3,-9.2l0,0z" class="st1"/>
   <path fill="#0A0080" d="m117.63181,8.82314c-60.4,0 -109.4,32.1 -109.4,71.6c0,1 0,3.8 0,4.2c0,41.8 42.8,75.7 109.4,75.7s109.4,-33.9 109.4,-75.7l0,-4.2c0,-39.5 -49,-71.6 -109.4,-71.6l0,0zm104.4,63.6c-23.8,5.3 -41.5,13 -46,14.9c-10.4,-9.1 -34.4,-29.9 -40.9,-34.8c-3.7,-2.8 -6.2,-4.3 -8.5,-4.9c-1,-0.3 -2.4,-0.6 -4.2,-0.6c-1.7,0 -3.4,0.3 -5.3,0.9c-4.2,1.3 -8.4,4.7 -12.4,7.9l0,0.1c-3.8,3 -7.7,6.1 -10.6,6.8c-1.3,0.3 -2.6,0.4 -3.9,0.4c-3.3,0 -6.3,-1 -7.4,-2.4c-0.2,-0.2 -0.1,-0.6 0.4,-1.2l0.1,-0.1l9.1,-9.8c7.2,-7.2 13.9,-13.9 29.5,-14.3c0.3,0 0.5,0 0.8,0c9.7,0 19.4,4.3 20.4,4.8c9.1,4.4 18.4,6.7 27.9,6.7c9.8,0 19.9,-2.4 30.5,-7.3c10.9,9.4 18.3,20.7 20.5,32.9l0,0zm-104.4,-59.4c32.1,0 60.8,9.2 80.1,23.7c-9.3,4 -18.2,6.1 -26.8,6.1c-8.8,0 -17.6,-2.1 -26.1,-6.3c-0.4,-0.2 -11.1,-5.3 -22.3,-5.3c-0.3,0 -0.6,0 -0.9,0c-13.1,0.3 -20.4,4.9 -25.4,9c-4.8,0.1 -9,1.3 -12.7,2.3c-3.3,0.9 -6.1,1.7 -8.9,1.7c-1.1,0 -3.2,-0.1 -3.4,-0.1c-3.2,-0.1 -19.2,-4 -32,-8.8c19.4,-13.7 47.3,-22.3 78.4,-22.3l0,0zm-82,25.1c13.3,5.5 29.5,9.7 34.7,10c1.4,0.1 2.9,0.3 4.5,0.3c3.4,0 6.8,-1 10.1,-1.9c1.9,-0.5 4.1,-1.1 6.3,-1.6c-0.6,0.6 -1.2,1.2 -1.8,1.8l-9.3,10c-0.7,0.7 -2.3,2.7 -1.3,5.1c0.4,1 1.3,1.9 2.4,2.7c2.2,1.5 6.2,2.5 9.8,2.5c1.4,0 2.7,-0.1 3.9,-0.4c3.9,-0.9 8,-4.1 12.3,-7.6c3.4,-2.7 8.3,-6.2 12.1,-7.2c1.1,-0.3 2.3,-0.5 3.4,-0.5c0.3,0 0.6,0 0.9,0.1c2.5,0.3 4.9,1.2 9.1,4.4c7.6,5.7 41.3,35.2 41.6,35.5c0,0 2.2,1.9 2,5c-0.1,1.7 -1,3.2 -2.7,4.3c-1.4,0.9 -2.9,1.4 -4.4,1.4c-2.3,0 -3.8,-1.1 -3.9,-1.1c-0.1,-0.1 -11.7,-10.7 -15.9,-14.3c-0.7,-0.6 -1.3,-1.1 -2,-1.1c-0.4,0 -0.7,0.2 -0.9,0.4c-0.7,0.8 0.1,2 1,2.7l13.5,13.6c0,0 1.7,1.6 1.9,3.7c0.1,2.2 -1,4.1 -3.2,5.6c-1.6,1.1 -3.2,1.6 -4.8,1.6c-2.1,0 -3.5,-0.9 -3.8,-1.2l-1.9,-1.9c-3.5,-3.5 -7.2,-7.1 -9.9,-9.3c-0.7,-0.5 -1.3,-1 -2,-1c-0.3,0 -0.6,0.1 -0.9,0.4c-0.3,0.3 -0.5,0.9 0.2,2c0.3,0.4 0.7,0.8 0.7,0.8l9.8,11.1c0.1,0.1 2,2.4 0.2,4.7l-0.4,0.4c-0.3,0.3 -0.6,0.6 -0.9,0.9c-1.7,1.4 -3.9,1.5 -4.8,1.5c-0.5,0 -0.9,0 -1.3,-0.1c-1,-0.2 -1.6,-0.4 -1.9,-0.8l-0.1,-0.1c-0.5,-0.6 -5.5,-5.6 -9.6,-9c-0.5,-0.5 -1.2,-1 -1.9,-1c-0.3,0 -0.6,0.1 -0.9,0.4c-0.8,0.9 0.4,2.2 0.9,2.7l8.4,9.3c0,0.1 -0.1,0.3 -0.3,0.6c-0.3,0.4 -1.3,1.4 -4.4,1.8c-0.4,0 -0.7,0.1 -1.1,0.1c-3.1,0 -6.5,-1.5 -8.2,-2.4c0.8,-1.7 1.2,-3.5 1.2,-5.3c0,-6.9 -5.6,-12.5 -12.5,-12.5c-0.1,0 -0.3,0 -0.4,0c0.2,-3.2 -0.2,-9.1 -6.4,-11.8c-1.8,-0.8 -3.5,-1.2 -5.2,-1.2c-1.3,0 -2.6,0.2 -3.8,0.7c-1.3,-2.5 -3.4,-4.3 -6.1,-5.2c-1.5,-0.5 -3,-0.8 -4.5,-0.8c-2.6,0 -4.9,0.8 -7,2.2c-2,-2.5 -5,-4 -8.2,-4c-2.8,0 -5.5,1.1 -7.5,3.1c-2.6,-2 -13,-8.6 -40.7,-14.9c-1.3,-0.3 -4.3,-1.2 -6.2,-1.7c2.4,-12.7 10.3,-24.1 22.1,-33.5l0,0zm51.4,72.3l-0.3,-0.3l-0.3,0c-0.2,0 -0.5,0.1 -0.8,0.3c-1.4,1 -2.8,1.5 -4.1,1.5c-0.8,0 -1.5,-0.2 -2.3,-0.4c-6.4,-2.5 -5.9,-8.6 -5.6,-10.4c0,-0.4 0,-0.7 -0.3,-0.9l-0.5,-0.4l-0.4,0.4c-1.3,1.2 -2.9,1.9 -4.6,1.9c-3.7,0 -6.7,-3 -6.7,-6.7c0,-3.7 3,-6.7 6.7,-6.7c3.3,0 6.2,2.5 6.6,5.8l0.2,1.8l1,-1.5c0.1,-0.2 2.8,-4.3 7.8,-4.3c0.9,0 1.9,0.2 2.9,0.5c4,1.2 4.6,4.8 4.7,6.3c0.1,0.9 0.7,0.9 0.8,0.9c0.3,0 0.6,-0.2 0.8,-0.4c0.7,-0.8 2.4,-2.1 4.9,-2.1c1.2,0 2.4,0.3 3.7,0.8c6.3,2.7 3.4,10.7 3.4,10.8c-0.5,1.3 -0.6,1.9 -0.1,2.2l0.2,0.1l0.2,0c0.3,0 0.6,-0.1 1.2,-0.3c0.9,-0.3 2.1,-0.7 3.4,-0.7l0,0c4.7,0.1 8.6,3.9 8.6,8.6c0,4.7 -3.9,8.6 -8.6,8.6c-4.6,0 -8.4,-3.6 -8.6,-8.2c0,-0.4 -0.1,-1.4 -0.9,-1.4c-0.4,0 -0.7,0.2 -1,0.5c-1,0.9 -2.3,1.9 -4.2,1.9c-0.9,0 -1.8,-0.2 -2.8,-0.6c-4.9,-2 -5,-5.3 -4.8,-6.7c0,-0.3 0.1,-0.6 -0.2,-0.9l0,0zm30.6,37.2c-58.1,0 -105.2,-30.1 -105.2,-67.3c0,-1.5 0.1,-3 0.3,-4.5c0.5,0.1 5.1,1.2 6,1.4c28.3,6.3 37.7,12.8 39.3,14.1c-0.5,1.3 -0.8,2.7 -0.8,4.1c0,5.9 4.8,10.6 10.6,10.6c0.7,0 1.3,-0.1 2,-0.2c0.9,4.3 3.7,7.6 8,9.3c1.3,0.5 2.5,0.7 3.8,0.7c0.8,0 1.6,-0.1 2.4,-0.3c0.8,2 2.6,4.5 6.6,6.2c1.4,0.6 2.8,0.9 4.2,0.9c1.1,0 2.2,-0.2 3.2,-0.6c1.9,4.7 6.5,7.8 11.6,7.8c3.4,0 6.6,-1.4 9,-3.8c2,1.1 6.3,3.2 10.6,3.2c0.6,0 1.1,0 1.6,-0.1c4.3,-0.5 6.3,-2.2 7.2,-3.5c0.2,-0.2 0.3,-0.5 0.4,-0.7c1,0.3 2.1,0.5 3.4,0.5c2.3,0 4.6,-0.8 6.9,-2.4c2.2,-1.6 3.8,-3.9 4,-5.9c0,0 0,-0.1 0,-0.1c0.8,0.2 1.5,0.2 2.3,0.2c2.4,0 4.8,-0.7 7,-2.2c4.4,-2.9 5.1,-6.6 5.1,-9c0.8,0.2 1.5,0.2 2.3,0.2c2.3,0 4.5,-0.7 6.6,-2c2.7,-1.7 4.3,-4.4 4.6,-7.5c0.2,-2.1 -0.4,-4.2 -1.5,-6c7.3,-3.1 24,-9.2 43.6,-13.7c0.1,1.1 0.1,2.2 0.1,3.4c0,37.1 -47.1,67.2 -105.2,67.2l0,0z" class="st2"/>
   <path fill="#0A0080" d="m602.13181,30.82314c-4,-5 -10,-7.5 -18.1,-7.5c-8.1,0 -14.1,2.5 -18.1,7.5c-4,5 -6,10.9 -6,17.6c0,6.8 2,12.8 6,17.7c4,4.9 10,7.4 18.1,7.4c8.1,0 14.1,-2.5 18.1,-7.4c4,-4.9 6,-10.8 6,-17.7c0,-6.9 -2,-12.6 -6,-17.6zm-9.8,28.6c-1.9,2.6 -4.7,3.8 -8.3,3.8c-3.6,0 -6.4,-1.3 -8.3,-3.8c-1.9,-2.6 -2.9,-6.2 -2.9,-10.9s1,-8.3 2.9,-10.9c1.9,-2.5 4.7,-3.8 8.3,-3.8c3.6,0 6.4,1.3 8.3,3.8c1.9,2.5 2.9,6.2 2.9,10.9s-1,8.3 -2.9,10.9l0,0zm-91.7,-32.8c-4,-2 -8.6,-3.1 -13.8,-3.1c-8,0 -13.6,2.1 -16.9,6.2c-2.1,2.7 -3.2,6.1 -3.5,10.2l11.9,0c0.3,-1.8 0.9,-3.3 1.8,-4.3c1.2,-1.4 3.3,-2.2 6.3,-2.2c2.6,0 4.6,0.4 6,1.1c1.4,0.7 2,2.1 2,4c0,1.6 -0.9,2.8 -2.7,3.5c-1,0.4 -2.6,0.8 -4.9,1.1l-4.2,0.5c-4.8,0.6 -8.4,1.6 -10.9,3c-4.5,2.6 -6.8,6.8 -6.8,12.6c0,4.5 1.4,7.9 4.2,10.4c2.8,2.4 6.4,3.5 10.7,3.7c27,1.2 26.7,-14.2 26.9,-17.4l0,-17.7c-0.1,-5.6 -2.1,-9.5 -6.1,-11.6l0,0zm-6.3,26.9c-0.1,4.1 -1.3,7 -3.5,8.5c-2.3,1.6 -4.8,2.3 -7.5,2.3c-1.7,0 -3.2,-0.5 -4.3,-1.4c-1.2,-0.9 -1.8,-2.5 -1.8,-4.6c0,-2.4 1,-4.1 2.9,-5.2c1.2,-0.7 3,-1.2 5.7,-1.7l2.8,-0.5c1.4,-0.3 2.5,-0.6 3.3,-0.9c0.8,-0.3 1.6,-0.7 2.4,-1.2l0,4.7l0,0zm-55.2,-19.4c3.1,0 5.3,1 6.8,2.9c1,1.4 1.6,3 1.9,4.8l13.3,0c-0.7,-6.7 -3.1,-11.4 -7,-14c-4,-2.6 -9.1,-4 -15.3,-4c-7.3,0 -13.1,2.2 -17.2,6.7c-4.2,4.5 -6.2,10.8 -6.2,18.9c0,7.1 1.9,13 5.7,17.5c3.8,4.5 9.6,6.7 17.6,6.7c8,0 14,-2.7 18.1,-8.1c2.6,-3.3 4,-6.9 4.3,-10.6l-13.4,0c-0.3,2.5 -1,4.5 -2.3,6.1c-1.3,1.5 -3.4,2.3 -6.5,2.3c-4.3,0 -7.2,-2 -8.8,-5.9c-0.9,-2.1 -1.3,-4.9 -1.3,-8.3s0.4,-6.5 1.3,-8.7c1.6,-4.2 4.6,-6.3 9,-6.3l0,0zm-27.4,-10.4c-27.3,0 -25.7,24.2 -25.7,24.2l0,24.6l12.4,0l0,-23c0,-3.8 0.5,-6.6 1.4,-8.4c1.7,-3.2 5,-4.8 10,-4.8c0.4,0 0.9,0 1.5,0.1c0.6,0 1.3,0.1 2.1,0.2l0,-12.6c-0.5,0 -0.9,-0.1 -1.1,-0.1c-0.2,-0.2 -0.4,-0.2 -0.6,-0.2l0,0zm-35.6,9.2c-2.1,-3.2 -4.9,-5.5 -8.1,-7c-3.3,-1.5 -7,-2.2 -11.1,-2.2c-6.9,0 -12.5,2.2 -16.8,6.5c-4.3,4.4 -6.5,10.6 -6.5,18.8c0,8.7 2.4,15 7.2,18.9c4.8,3.9 10.3,5.8 16.6,5.8c7.6,0 13.5,-2.3 17.7,-6.9c2.3,-2.4 3.7,-4.8 4.3,-7.1l-13.2,0c-0.5,0.7 -1.1,1.4 -1.7,1.9c-1.8,1.4 -4.1,1.9 -6.9,1.9c-2.6,0 -4.7,-0.4 -6.6,-1.6c-3.1,-1.9 -4.8,-5.1 -5,-9.8l34.3,0c0,-4.1 -0.1,-7.2 -0.4,-9.4c-0.6,-3.8 -1.9,-7 -3.8,-9.8l0,0zm-29.9,10.9c0.4,-3.1 1.5,-5.5 3.3,-7.3c1.7,-1.8 4.2,-2.7 7.4,-2.7c2.9,0 5.3,0.8 7.3,2.5c2,1.7 3,4.2 3.3,7.4l-21.3,0l0,0.1zm-37.3,-20.3c-5.8,0 -10.7,2.5 -14.1,6.6c-3.2,-4 -8.1,-6.6 -14.1,-6.6c-12.1,0 -19.9,8.9 -19.9,20.7l0,28.2l11.3,0l0,-28.5c0,-5.2 3.5,-8.8 8.6,-8.8c7.5,0 8.2,6.2 8.2,8.8l0,28.5l11.3,0l0,-28.5c0,-5.2 3.6,-8.8 8.6,-8.8c7.5,0 8.3,6.2 8.3,8.8l0,28.5l11.3,0l0,-28.2c0.2,-12.1 -7.1,-20.7 -19.5,-20.7l0,0zm234.9,-6l0,13.3c-1.4,-2.2 -3.2,-4 -5.4,-5.2c-2.2,-1.2 -4.7,-1.9 -7.6,-1.9c-6.2,0 -11.1,2.3 -14.8,6.9c-3.7,4.6 -5.6,11.3 -5.6,19.3c0,7 1.9,12.7 5.6,17.1c3.8,4.4 11.1,6.4 17.7,6.4c22.8,0 22.6,-19.6 22.6,-19.6l0,-45c0,0 -12.5,-1.3 -12.5,8.7l0,0zm-2.4,42c-1.8,2.6 -4.5,3.9 -7.9,3.9s-6.1,-1.3 -7.8,-3.9c-1.7,-2.6 -2.6,-6.4 -2.6,-10.8c0,-4 0.8,-7.4 2.5,-10.1s4.3,-4.1 7.9,-4.1c2.4,0 4.4,0.7 6.2,2.2c2.9,2.5 4.4,6.9 4.4,12.7c0.1,4.1 -0.9,7.5 -2.7,10.1l0,0zm-254.4,31.9c-10.2,-0.5 -15.4,2 -18.7,4.5c-4.6,3.5 -7.5,8.8 -7.5,17.2l0,43.1l6,0c1.6,0 3.2,-0.6 4.4,-1.6c1.3,-1.2 2,-2.7 2,-4.5l0,-16.2c1.5,2.5 3.4,4.4 5.8,5.6c2.3,1.1 5,1.6 8,1.6c5.7,0 10.4,-2.3 14,-6.8c3.6,-4.7 5.5,-10.8 5.5,-18.3c0,-7.6 -1.7,-12.9 -5.9,-18c-3.2,-4.1 -8.3,-6.4 -13.6,-6.6l0,0zm4.3,35.3c-1.8,2.5 -4.3,3.8 -7.5,3.8c-3.4,0 -6,-1.2 -7.8,-3.8c-1.8,-2.3 -2.7,-5.7 -2.7,-10.2c0,-4.9 0.8,-8.5 2.5,-10.8c1.8,-2.5 4.4,-3.8 7.7,-3.8c3.3,0 6,1.3 7.8,3.8c1.8,2.5 2.7,6.1 2.7,10.8c0,4.3 -0.9,7.7 -2.7,10.2zm102.2,-30.9c-4.2,-3.2 -8.5,-4.9 -15.9,-4.7c-7.5,0.2 -13,2.3 -16.4,6.9c-3.4,4.6 -5.1,10.6 -5.1,18c0,6.3 1.3,11.5 3.8,15.4c2.6,3.9 5.6,6.6 9.2,8c3.6,1.4 7.2,1.7 10.8,0.9c3.6,-0.8 6.5,-2.9 8.7,-6.3l0,3c-0.2,3.8 -1.2,6.7 -2.8,8.6c-1.6,1.9 -3.4,3.1 -5.4,3.5c-2,0.4 -3.9,0.2 -5.9,-0.7c-2,-0.9 -3.4,-2.2 -4.4,-3.9l-13.1,0c3.4,10.2 9.5,14.7 20.4,15.4c17.6,1.3 23.3,-13.7 23.3,-21.7l0,-25.3c0.2,-8.2 -2.6,-13.6 -7.2,-17.1l0,0zm-5.2,24.9c-0.5,2.8 -1.2,4.9 -2.3,6.2c-2.3,3.1 -5.8,4.2 -10.5,3.3c-4.8,-0.9 -7.2,-5.5 -7.2,-13.7c0,-3.8 0.7,-7.2 2.1,-10.2c1.4,-3 4.2,-4.5 8.2,-4.5c3,0 5.3,1.1 6.8,3.2c1.6,2.2 2.5,4.6 3,7.4c0.4,2.7 0.4,5.5 -0.1,8.3l0,0zm-42.8,-26.1c-4,-2 -8.6,-3.1 -13.8,-3.1c-8,0 -13.6,2.1 -16.9,6.2c-2.1,2.7 -3.2,6.1 -3.5,10.2l11.9,0c0.3,-1.8 0.9,-3.3 1.8,-4.3c1.2,-1.4 3.3,-2.2 6.3,-2.2c2.6,0 4.6,0.4 6,1.1c1.4,0.7 2,2.1 2,4c0,1.6 -0.9,2.8 -2.7,3.5c-1,0.4 -2.6,0.8 -4.9,1.1l-4.2,0.5c-4.8,0.6 -8.5,1.6 -10.9,3c-4.5,2.6 -6.8,6.8 -6.8,12.6c0,4.5 1.4,7.9 4.2,10.4c2.8,2.4 6.4,3.5 10.7,3.7c26.9,1.2 26.6,-14.2 26.9,-17.4l0,-17.7c0,-5.7 -2,-9.6 -6.1,-11.6l0,0zm-6.3,26.9c-0.1,4.1 -1.3,7 -3.5,8.5c-2.3,1.6 -4.8,2.3 -7.5,2.3c-1.7,0 -3.1,-0.5 -4.3,-1.4c-1.2,-0.9 -1.8,-2.5 -1.8,-4.6c0,-2.4 1,-4.1 2.9,-5.2c1.2,-0.7 3,-1.2 5.7,-1.7l2.8,-0.5c1.4,-0.3 2.5,-0.5 3.3,-0.9c0.8,-0.3 1.6,-0.7 2.4,-1.2l0,4.7l0,0zm108.5,-23c-4,-5 -10,-7.5 -18.1,-7.5c-8.1,0 -14.1,2.5 -18.1,7.5c-4,5 -6,10.9 -6,17.6s2,12.8 6,17.7c4,4.9 10,7.3 18.1,7.3c8.1,0 14.1,-2.5 18.1,-7.3c4,-4.9 6,-10.8 6,-17.7c0,-6.9 -2,-12.6 -6,-17.6zm-9.8,28.5c-1.9,2.6 -4.7,3.8 -8.3,3.8c-3.6,0 -6.4,-1.3 -8.3,-3.8c-2,-2.6 -2.9,-6.2 -2.9,-10.9c0,-4.7 1,-8.3 2.9,-10.9c1.9,-2.5 4.7,-3.8 8.3,-3.8c3.6,0 6.4,1.3 8.3,3.8c1.9,2.5 2.9,6.2 2.9,10.9c0,4.8 -1,8.4 -2.9,10.9z" class="st2"/>
  </g>
 </g>
</svg>